REM DIRINDEX 1\4,1\2\5,1\2\6,1\3\7\9,1\3\7\10,1\3\8\11,1\3\8\12
REM DIRNAME folder01,folder02,folder03,folder04,folder05,folder06,folder07,folder08,folder09,folder10,folder11,folder12
TITLE ""
FILE "CD-ATrack04.mp3" MP3
  TRACK 01 AUDIO
    TITLE "0:"
    INDEX 01 00:00:00
  TRACK 02 AUDIO
    TITLE "6:cjc051_0178"
    INDEX 01 00:00:19
  TRACK 03 AUDIO
    TITLE "5:cjc051_0179"
    INDEX 01 00:01:28
  TRACK 04 AUDIO
    TITLE "6:cjc051_0180"
    INDEX 01 00:02:30
  TRACK 05 AUDIO
    TITLE "5:cjc051_0181"
    INDEX 01 00:03:45
  TRACK 06 AUDIO
    TITLE "6:cjc051_0182"
    INDEX 01 00:04:60
  TRACK 07 AUDIO
    TITLE "5:cjc051_0183"
    INDEX 01 00:06:02
  TRACK 08 AUDIO
    TITLE "6:cjc051_0184"
    INDEX 01 00:07:09
  TRACK 09 AUDIO
    TITLE "5:cjc051_0185"
    INDEX 01 00:08:26
  TRACK 10 AUDIO
    TITLE "6:cjc051_0186"
    INDEX 01 00:09:32
  TRACK 11 AUDIO
    TITLE "5:cjc051_0187"
    INDEX 01 00:12:32
  TRACK 12 AUDIO
    TITLE "6:cjc051_0188"
    INDEX 01 00:13:26
  TRACK 13 AUDIO
    TITLE "5:cjc051_0189"
    INDEX 01 00:14:35
  TRACK 14 AUDIO
    TITLE "6:cjc051_0190"
    INDEX 01 00:15:34
  TRACK 15 AUDIO
    TITLE "5:cjc051_0191"
    INDEX 01 00:16:40
  TRACK 16 AUDIO
    TITLE "6:cjc051_0192"
    INDEX 01 00:17:43
  TRACK 17 AUDIO
    TITLE "5:cjc051_0193"
    INDEX 01 00:18:48
  TRACK 18 AUDIO
    TITLE "6:cjc051_0194"
    INDEX 01 00:19:54
  TRACK 19 AUDIO
    TITLE "5:cjc051_0195"
    INDEX 01 00:20:63
  TRACK 20 AUDIO
    TITLE "6:cjc051_0196"
    INDEX 01 00:21:68
  TRACK 21 AUDIO
    TITLE "5:cjc051_0197"
    INDEX 01 00:23:20
  TRACK 22 AUDIO
    TITLE "6:cjc051_0198"
    INDEX 01 00:24:24
  TRACK 23 AUDIO
    TITLE "5:cjc051_0199"
    INDEX 01 00:25:23
  TRACK 24 AUDIO
    TITLE "6:cjc051_0200"
    INDEX 01 00:26:36
  TRACK 25 AUDIO
    TITLE "5:cjc051_0201"
    INDEX 01 00:27:36
  TRACK 26 AUDIO
    TITLE "6:cjc051_0202"
    INDEX 01 00:28:43
  TRACK 27 AUDIO
    TITLE "5:cjc051_0203"
    INDEX 01 00:29:44
  TRACK 28 AUDIO
    TITLE "6:cjc051_0204"
    INDEX 01 00:30:65
  TRACK 29 AUDIO
    TITLE "5:cjc051_0205"
    INDEX 01 00:31:73
  TRACK 30 AUDIO
    TITLE "6:cjc051_0206"
    INDEX 01 00:33:17
  TRACK 31 AUDIO
    TITLE "5:cjc051_0207"
    INDEX 01 00:34:20
  TRACK 32 AUDIO
    TITLE "6:cjc051_0208"
    INDEX 01 00:35:35
  TRACK 33 AUDIO
    TITLE "5:cjc051_0209"
    INDEX 01 00:36:33
  TRACK 34 AUDIO
    TITLE "6:cjc051_0210"
    INDEX 01 00:37:38
  TRACK 35 AUDIO
    TITLE "5:cjc051_0211"
    INDEX 01 00:38:47
  TRACK 36 AUDIO
    TITLE "6:cjc051_0212"
    INDEX 01 00:39:51
  TRACK 37 AUDIO
    TITLE "5:cjc051_0213"
    INDEX 01 00:40:64
  TRACK 38 AUDIO
    TITLE "6:cjc051_0214"
    INDEX 01 00:41:67
  TRACK 39 AUDIO
    TITLE "5:cjc051_0215"
    INDEX 01 00:43:13
  TRACK 40 AUDIO
    TITLE "6:cjc051_0216"
    INDEX 01 00:44:28
  TRACK 41 AUDIO
    TITLE "5:cjc051_0217"
    INDEX 01 00:45:32
  TRACK 42 AUDIO
    TITLE "6:cjc051_0218"
    INDEX 01 00:46:37
  TRACK 43 AUDIO
    TITLE "5:cjc051_0219"
    INDEX 01 00:47:27
  TRACK 44 AUDIO
    TITLE "6:cjc051_0220"
    INDEX 01 00:48:26
  TRACK 45 AUDIO
    TITLE "5:cjc051_0221"
    INDEX 01 00:49:27
  TRACK 46 AUDIO
    TITLE "6:cjc051_0222"
    INDEX 01 00:50:37
  TRACK 47 AUDIO
    TITLE "5:cjc051_0223"
    INDEX 01 00:51:24
  TRACK 48 AUDIO
    TITLE "6:cjc051_0224"
    INDEX 01 00:52:30
  TRACK 49 AUDIO
    TITLE "5:cjc051_0225"
    INDEX 01 00:53:29
  TRACK 50 AUDIO
    TITLE "6:cjc051_0226"
    INDEX 01 00:54:30
  TRACK 51 AUDIO
    TITLE "5:cjc051_0227"
    INDEX 01 00:55:48
  TRACK 52 AUDIO
    TITLE "6:cjc051_0228"
    INDEX 01 00:56:51
  TRACK 53 AUDIO
    TITLE "5:cjc051_0229"
    INDEX 01 00:57:62
  TRACK 54 AUDIO
    TITLE "6:cjc051_0230"
    INDEX 01 00:58:66
  TRACK 55 AUDIO
    TITLE "5:cjc051_0231"
    INDEX 01 00:59:73
  TRACK 56 AUDIO
    TITLE "6:cjc051_0232"
    INDEX 01 01:01:01
  TRACK 57 AUDIO
    TITLE "5:cjc051_0233"
    INDEX 01 01:02:05
  TRACK 58 AUDIO
    TITLE "6:cjc051_0234"
    INDEX 01 01:03:12
  TRACK 59 AUDIO
    TITLE "5:cjc051_0235"
    INDEX 01 01:04:19
  TRACK 60 AUDIO
    TITLE "6:cjc051_0236"
    INDEX 01 01:05:28
  TRACK 61 AUDIO
    TITLE "5:cjc051_0237"
    INDEX 01 01:06:65
  TRACK 62 AUDIO
    TITLE "6:cjc051_0238"
    INDEX 01 01:08:03
  TRACK 63 AUDIO
    TITLE "5:cjc051_0239"
    INDEX 01 01:09:34
  TRACK 64 AUDIO
    TITLE "6:cjc051_0240"
    INDEX 01 01:10:55
  TRACK 65 AUDIO
    TITLE "5:cjc051_0241"
    INDEX 01 01:11:62
  TRACK 66 AUDIO
    TITLE "6:cjc051_0242"
    INDEX 01 01:12:66
  TRACK 67 AUDIO
    TITLE "5:cjc051_0243"
    INDEX 01 01:13:61
  TRACK 68 AUDIO
    TITLE "6:cjc051_0244"
    INDEX 01 01:14:55
  TRACK 69 AUDIO
    TITLE "5:cjc051_0245"
    INDEX 01 01:15:56
  TRACK 70 AUDIO
    TITLE "6:cjc051_0246"
    INDEX 01 01:16:61
  TRACK 71 AUDIO
    TITLE "5:cjc051_0247"
    INDEX 01 01:17:73
  TRACK 72 AUDIO
    TITLE "6:cjc051_0248"
    INDEX 01 01:19:13
  TRACK 73 AUDIO
    TITLE "5:cjc051_0249"
    INDEX 01 01:20:12
  TRACK 74 AUDIO
    TITLE "6:cjc051_0250"
    INDEX 01 01:21:12
  TRACK 75 AUDIO
    TITLE "5:cjc051_0251"
    INDEX 01 01:22:11
  TRACK 76 AUDIO
    TITLE "6:cjc051_0252"
    INDEX 01 01:23:07
  TRACK 77 AUDIO
    TITLE "5:cjc051_0253"
    INDEX 01 01:24:28
  TRACK 78 AUDIO
    TITLE "6:cjc051_0254"
    INDEX 01 01:25:39
  TRACK 79 AUDIO
    TITLE "5:cjc051_0255"
    INDEX 01 01:26:29
  TRACK 80 AUDIO
    TITLE "6:cjc051_0256"
    INDEX 01 01:27:34
  TRACK 81 AUDIO
    TITLE "5:cjc051_0257"
    INDEX 01 01:28:29
  TRACK 82 AUDIO
    TITLE "6:cjc051_0258"
    INDEX 01 01:29:33
  TRACK 83 AUDIO
    TITLE "5:cjc051_0259"
    INDEX 01 01:30:52
  TRACK 84 AUDIO
    TITLE "6:cjc051_0260"
    INDEX 01 01:31:51
  TRACK 85 AUDIO
    TITLE "5:cjc051_0261"
    INDEX 01 01:32:64
  TRACK 86 AUDIO
    TITLE "6:cjc051_0262"
    INDEX 01 01:33:70
  TRACK 87 AUDIO
    TITLE "5:cjc051_0263"
    INDEX 01 01:34:61
  TRACK 88 AUDIO
    TITLE "6:cjc051_0264"
    INDEX 01 01:35:55
  TRACK 89 AUDIO
    TITLE "5:cjc051_0265"
    INDEX 01 01:36:62
  TRACK 90 AUDIO
    TITLE "0:"
    INDEX 01 01:38:08
